<svg width="24" height="24" viewBox="0 0 24 24" fill="none" xmlns="http://www.w3.org/2000/svg">
<path fill-rule="evenodd" clip-rule="evenodd" d="M12.6 11.503L16.491 15.394L15.643 16.243L11.4 12V6H12.6V11.503ZM12 22C6.477 22 2 17.523 2 12C2 6.477 6.477 2 12 2C17.523 2 22 6.477 22 12C22 17.523 17.523 22 12 22ZM12 20.8C14.3339 20.8 16.5722 19.8729 18.2225 18.2225C19.8729 16.5722 20.8 14.3339 20.8 12C20.8 9.66609 19.8729 7.42778 18.2225 5.77746C16.5722 4.12714 14.3339 3.2 12 3.2C9.66609 3.2 7.42778 4.12714 5.77746 5.77746C4.12714 7.42778 3.2 9.66609 3.2 12C3.2 14.3339 4.12714 16.5722 5.77746 18.2225C7.42778 19.8729 9.66609 20.8 12 20.8Z" fill="black"/>
</svg>
