<svg width="16" height="18" viewBox="0 0 16 18" fill="none" xmlns="http://www.w3.org/2000/svg">
<path d="M5.28833 14.3523L5.38209 13.5183L4.37795 13.4054L4.45126 14.4132L5.28833 14.3523ZM10.7118 14.3523L11.5489 14.4132L11.6222 13.4054L10.6181 13.5183L10.7118 14.3523ZM10.6295 14.8726L11.4445 15.073L11.4445 15.073L10.6295 14.8726ZM10.5552 15.1748L9.74022 14.9744L9.74022 14.9744L10.5552 15.1748ZM8.63826 17.0846L8.83352 17.9009L8.83352 17.9009L8.63826 17.0846ZM7.36189 17.0846L7.16663 17.9009H7.16663L7.36189 17.0846ZM5.44493 15.1748L6.25993 14.9744V14.9744L5.44493 15.1748ZM5.37061 14.8726L4.55561 15.073V15.073L5.37061 14.8726ZM5.19457 15.1863C7.05907 15.3959 8.94109 15.3959 10.8056 15.1863L10.6181 13.5183C8.87819 13.7139 7.12197 13.7139 5.38209 13.5183L5.19457 15.1863ZM11.4445 15.073C11.4978 14.8562 11.5327 14.6355 11.5489 14.4132L9.87476 14.2914C9.86543 14.4197 9.8453 14.5471 9.81454 14.6722L11.4445 15.073ZM11.3702 15.3752L11.4445 15.073L9.81454 14.6721L9.74022 14.9744L11.3702 15.3752ZM8.83352 17.9009C10.0851 17.6014 11.0628 16.6256 11.3702 15.3752L9.74022 14.9744C9.582 15.6179 9.0802 16.1159 8.443 16.2684L8.83352 17.9009ZM7.16663 17.9009C7.71459 18.0319 8.28557 18.0319 8.83352 17.9009L8.443 16.2684C8.15177 16.338 7.84838 16.338 7.55715 16.2684L7.16663 17.9009ZM4.62993 15.3752C4.93739 16.6256 5.91504 17.6014 7.16663 17.9009L7.55715 16.2684C6.91996 16.1159 6.41815 15.6179 6.25993 14.9744L4.62993 15.3752ZM4.55561 15.073L4.62993 15.3752L6.25993 14.9744L6.18561 14.6722L4.55561 15.073ZM4.45126 14.4132C4.46744 14.6355 4.50231 14.8562 4.55561 15.073L6.18561 14.6722C6.15486 14.5471 6.13473 14.4197 6.1254 14.2914L4.45126 14.4132Z" fill="#636161"/>
<path d="M8.83928 0.840122C8.83928 0.376602 8.46352 0.000844181 8 0.000844181C7.53648 0.000844181 7.16072 0.376602 7.16072 0.840122H8.83928ZM7.16072 1.75031C7.16072 2.21383 7.53648 2.58959 8 2.58959C8.46352 2.58959 8.83928 2.21383 8.83928 1.75031H7.16072ZM7.16072 0.840122V1.75031H8.83928V0.840122H7.16072Z" fill="#636161"/>
<path d="M2.58491 5.94698L3.39498 6.16647V6.16647L2.58491 5.94698ZM6.32997 2.02078L6.07117 1.2224V1.2224L6.32997 2.02078ZM2.54427 6.09699L1.7342 5.8775L1.7342 5.8775L2.54427 6.09699ZM2.36891 9.78657L3.19615 9.64494L3.19615 9.64494L2.36891 9.78657ZM2.38931 9.90575L1.56207 10.0474L1.56207 10.0474L2.38931 9.90575ZM2.82046 13.9479L2.98799 13.1255H2.98799L2.82046 13.9479ZM3.15374 14.0158L2.9862 14.8382H2.9862L3.15374 14.0158ZM12.8457 14.0158L13.0132 14.8382L12.8457 14.0158ZM13.179 13.9479L13.0114 13.1255H13.0114L13.179 13.9479ZM13.614 9.88291L14.4413 10.0245V10.0245L13.614 9.88291ZM13.6357 9.7565L12.8084 9.61486V9.61486L13.6357 9.7565ZM13.4775 6.12256L12.6657 6.33554V6.33555L13.4775 6.12256ZM13.4209 5.90687L14.2327 5.69388V5.69388L13.4209 5.90687ZM9.78319 2.02636L10.0464 1.22942L9.78319 2.02636ZM13.7598 10.1795L13.3499 10.9119L13.7598 10.1795ZM2.25867 10.169L2.66059 10.9057L2.25867 10.169ZM3.39498 6.16647C3.82285 4.58733 5.03556 3.32264 6.58877 2.81916L6.07117 1.2224C3.98254 1.89944 2.35215 3.59681 1.77484 5.72749L3.39498 6.16647ZM3.35433 6.31647L3.39498 6.16647L1.77484 5.72749L1.7342 5.8775L3.35433 6.31647ZM3.19615 9.64494C3.00647 8.53713 3.06048 7.40102 3.35433 6.31647L1.7342 5.8775C1.37655 7.19748 1.31084 8.58006 1.54167 9.92821L3.19615 9.64494ZM3.21655 9.76412L3.19615 9.64494L1.54167 9.92821L1.56207 10.0474L3.21655 9.76412ZM2.03899 11.9562C2.03899 11.5022 2.28989 11.108 2.66059 10.9057L1.85674 9.43218C0.965954 9.91811 0.360429 10.8665 0.360429 11.9562H2.03899ZM2.98799 13.1255C2.43855 13.0136 2.03899 12.5266 2.03899 11.9562H0.360429C0.360429 13.3192 1.31641 14.498 2.65292 14.7703L2.98799 13.1255ZM3.32128 13.1934L2.98799 13.1255L2.65292 14.7703L2.9862 14.8382L3.32128 13.1934ZM12.6781 13.1934C9.59059 13.8224 6.40883 13.8224 3.32128 13.1934L2.9862 14.8382C6.29487 15.5123 9.70455 15.5123 13.0132 14.8382L12.6781 13.1934ZM13.0114 13.1255L12.6781 13.1934L13.0132 14.8382L13.3465 14.7703L13.0114 13.1255ZM13.9604 11.9562C13.9604 12.5266 13.5609 13.0136 13.0114 13.1255L13.3465 14.7703C14.683 14.498 15.639 13.3192 15.639 11.9562H13.9604ZM13.3499 10.9119C13.7146 11.1159 13.9604 11.5068 13.9604 11.9562H15.639C15.639 10.8775 15.0456 9.93723 14.1696 9.44705L13.3499 10.9119ZM12.8084 9.61486L12.7868 9.74127L14.4413 10.0245L14.4629 9.89813L12.8084 9.61486ZM12.6657 6.33555C12.9465 7.40572 12.9952 8.52408 12.8084 9.61486L14.4629 9.89813C14.69 8.57149 14.6309 7.2113 14.2893 5.90957L12.6657 6.33555ZM12.6091 6.11985L12.6657 6.33554L14.2893 5.90957L14.2327 5.69388L12.6091 6.11985ZM9.51999 2.8233C11.0373 3.32442 12.201 4.56433 12.6091 6.11985L14.2327 5.69388C13.681 3.59099 12.1063 1.90972 10.0464 1.22942L9.51999 2.8233ZM6.58877 2.81916C7.54008 2.51079 8.57416 2.51093 9.51999 2.8233L10.0464 1.22942C8.75794 0.803893 7.35814 0.805229 6.07117 1.2224L6.58877 2.81916ZM14.1696 9.44705C14.3546 9.55059 14.4846 9.77121 14.4413 10.0245L12.7868 9.74127C12.7026 10.2329 12.9547 10.6907 13.3499 10.9119L14.1696 9.44705ZM1.56207 10.0474C1.51637 9.78047 1.65374 9.54292 1.85674 9.43218L2.66059 10.9057C3.05206 10.6922 3.29861 10.2434 3.21655 9.76412L1.56207 10.0474Z" fill="#636161"/>
</svg>
