<svg width="22" height="22" viewBox="0 0 22 22" fill="none" xmlns="http://www.w3.org/2000/svg">
<path d="M16.94 11C16.1709 10.3554 15.1932 10.0132 14.19 10.0375H7.74124C7.44722 10.0449 7.15472 9.99296 6.88125 9.88469C6.60778 9.77642 6.35898 9.61408 6.14972 9.40739C5.94047 9.2007 5.77507 8.95392 5.66343 8.68181C5.55179 8.4097 5.4962 8.11787 5.49999 7.82377C5.49283 7.7093 5.49283 7.59449 5.49999 7.48002C5.5867 6.9545 5.86226 6.47871 6.27493 6.14198C6.68761 5.80526 7.20902 5.63077 7.74124 5.65127H14.0937C14.6119 5.65081 15.1134 5.83443 15.5088 6.16937C15.9042 6.50432 16.1678 6.96881 16.2525 7.48002H18.315C18.2287 6.4198 17.7465 5.43091 16.9644 4.70993C16.1823 3.98896 15.1575 3.58871 14.0937 3.58877H11.9212V0.42627H10.2025V3.58877H7.74124C6.67752 3.58871 5.65273 3.98896 4.87061 4.70993C4.08849 5.43091 3.60634 6.4198 3.51999 7.48002C3.51283 7.59449 3.51283 7.7093 3.51999 7.82377C3.51999 8.37811 3.62918 8.92703 3.84132 9.43917C4.05346 9.95132 4.36439 10.4167 4.75637 10.8086C5.54801 11.6003 6.6217 12.045 7.74124 12.045H14.2587C14.5504 12.0377 14.8407 12.0888 15.1123 12.1954C15.3839 12.302 15.6315 12.4618 15.8403 12.6656C16.0492 12.8693 16.2152 13.1128 16.3285 13.3817C16.4418 13.6506 16.5001 13.9395 16.5 14.2313C16.5133 14.3868 16.5133 14.5432 16.5 14.6988C16.3908 15.1826 16.1204 15.6149 15.7331 15.9247C15.3458 16.2345 14.8647 16.4035 14.3687 16.4038H7.90624C7.41028 16.4035 6.92916 16.2345 6.54188 15.9247C6.1546 15.6149 5.88417 15.1826 5.77499 14.6988H3.69874C3.81691 15.7319 4.31103 16.6854 5.08697 17.3777C5.8629 18.0699 6.8664 18.4525 7.90624 18.4525H10.2025V21.5738H11.9212V18.4525H14.2587C15.2986 18.4525 16.3021 18.0699 17.078 17.3777C17.854 16.6854 18.3481 15.7319 18.4662 14.6988V14.2313C18.4646 13.6137 18.327 13.004 18.0632 12.4456C17.7994 11.8871 17.416 11.3936 16.94 11Z" fill="#1572E2"/>
</svg>
