<svg width="24" height="22" viewBox="0 0 24 22" fill="none" xmlns="http://www.w3.org/2000/svg">
<path d="M3.338 16C4.21583 17.5204 5.47848 18.783 6.99901 19.6607C8.51953 20.5384 10.2443 21.0003 12 21C13.7557 21.0003 15.4805 20.5384 17.001 19.6607C18.5215 18.783 19.7842 17.5204 20.662 16M3.338 6C4.21583 4.47955 5.47848 3.21701 6.99901 2.33931C8.51953 1.46161 10.2443 0.999694 12 1C13.7557 0.999694 15.4805 1.46161 17.001 2.33931C18.5215 3.21701 19.7842 4.47955 20.662 6" stroke="#1572E2" stroke-width="1.5" stroke-linecap="round" stroke-linejoin="round"/>
<path d="M13 20.9501C13 20.9501 14.408 19.097 15.295 16M13 1.05005C13 1.05005 14.408 2.90205 15.295 6.00005M11 20.9501C11 20.9501 9.592 19.098 8.705 16M11 1.05005C11 1.05005 9.592 2.90205 8.705 6.00005M9 9.00005L10.5 14L12 9.00005L13.5 14L15 9.00005M1 9.00005L2.5 14L4 9.00005L5.5 14L7 9.00005M17 9.00005L18.5 14L20 9.00005L21.5 14L23 9.00005" stroke="#1572E2" stroke-width="1.5" stroke-linecap="round" stroke-linejoin="round"/>
</svg>
