<svg width="24" height="24" viewBox="0 0 24 24" fill="none" xmlns="http://www.w3.org/2000/svg">
<path d="M3.33801 17C4.21584 18.5204 5.4785 19.783 6.99902 20.6607C8.51955 21.5384 10.2443 22.0003 12 22C13.7557 22.0003 15.4805 21.5384 17.001 20.6607C18.5215 19.783 19.7842 18.5204 20.662 17M3.33801 7C4.21584 5.47955 5.4785 4.21701 6.99902 3.33931C8.51955 2.46161 10.2443 1.99969 12 2C13.7557 1.99969 15.4805 2.46161 17.001 3.33931C18.5215 4.21701 19.7842 5.47955 20.662 7" stroke="black" stroke-width="1.5" stroke-linecap="round" stroke-linejoin="round"/>
<path d="M13 21.9501C13 21.9501 14.408 20.097 15.295 17M13 2.05005C13 2.05005 14.408 3.90205 15.295 7.00005M11 21.9501C11 21.9501 9.592 20.098 8.705 17M11 2.05005C11 2.05005 9.592 3.90205 8.705 7.00005M9 10L10.5 15L12 10L13.5 15L15 10M1 10L2.5 15L4 10L5.5 15L7 10M17 10L18.5 15L20 10L21.5 15L23 10" stroke="black" stroke-width="1.5" stroke-linecap="round" stroke-linejoin="round"/>
</svg>
