<svg width="28" height="28" viewBox="0 0 28 28" fill="none" xmlns="http://www.w3.org/2000/svg">
<path d="M13.9999 12.8333C15.547 12.8333 17.0307 13.4479 18.1247 14.5419C19.2187 15.6358 19.8333 17.1196 19.8333 18.6667V25.6667H17.4999V18.6667C17.5 17.7739 17.1589 16.9149 16.5464 16.2654C15.934 15.6158 15.0965 15.2249 14.2053 15.1725L13.9999 15.1667C13.1072 15.1666 12.2482 15.5077 11.5986 16.1202C10.9491 16.7326 10.5581 17.5701 10.5058 18.4613L10.4999 18.6667V25.6667H8.16659V18.6667C8.16659 17.1196 8.78117 15.6358 9.87513 14.5419C10.9691 13.4479 12.4528 12.8333 13.9999 12.8333ZM6.41659 16.3333C6.74325 16.3341 7.05825 16.3707 7.36159 16.443C7.16284 17.037 7.04473 17.6551 7.01042 18.2805L6.99992 18.6667V18.767C6.86579 18.7191 6.72631 18.6878 6.58459 18.6737L6.41659 18.6667C5.98174 18.6667 5.56246 18.8286 5.24046 19.1208C4.91846 19.413 4.71679 19.8147 4.67475 20.2475L4.66659 20.4167V25.6667H2.33325V20.4167C2.33325 19.3337 2.76346 18.2951 3.52923 17.5293C4.29501 16.7636 5.33362 16.3333 6.41659 16.3333ZM21.5833 16.3333C22.6662 16.3333 23.7048 16.7636 24.4706 17.5293C25.2364 18.2951 25.6666 19.3337 25.6666 20.4167V25.6667H23.3333V20.4167C23.3333 19.9818 23.1714 19.5626 22.8791 19.2406C22.5869 18.9185 22.1852 18.7169 21.7524 18.6748L21.5833 18.6667C21.3779 18.6675 21.1835 18.7005 20.9999 18.7658V18.6667C20.9999 17.8897 20.8739 17.143 20.6406 16.4453C20.9416 16.3718 21.2589 16.3333 21.5833 16.3333ZM6.41659 9.33334C7.19013 9.33334 7.932 9.64064 8.47898 10.1876C9.02596 10.7346 9.33325 11.4765 9.33325 12.25C9.33325 13.0236 9.02596 13.7654 8.47898 14.3124C7.932 14.8594 7.19013 15.1667 6.41659 15.1667C5.64304 15.1667 4.90117 14.8594 4.35419 14.3124C3.80721 13.7654 3.49992 13.0236 3.49992 12.25C3.49992 11.4765 3.80721 10.7346 4.35419 10.1876C4.90117 9.64064 5.64304 9.33334 6.41659 9.33334ZM21.5833 9.33334C22.3568 9.33334 23.0987 9.64064 23.6456 10.1876C24.1926 10.7346 24.4999 11.4765 24.4999 12.25C24.4999 13.0236 24.1926 13.7654 23.6456 14.3124C23.0987 14.8594 22.3568 15.1667 21.5833 15.1667C20.8097 15.1667 20.0678 14.8594 19.5209 14.3124C18.9739 13.7654 18.6666 13.0236 18.6666 12.25C18.6666 11.4765 18.9739 10.7346 19.5209 10.1876C20.0678 9.64064 20.8097 9.33334 21.5833 9.33334ZM6.41659 11.6667C6.26188 11.6667 6.1135 11.7281 6.00411 11.8375C5.89471 11.9469 5.83325 12.0953 5.83325 12.25C5.83325 12.4047 5.89471 12.5531 6.00411 12.6625C6.1135 12.7719 6.26188 12.8333 6.41659 12.8333C6.5713 12.8333 6.71967 12.7719 6.82906 12.6625C6.93846 12.5531 6.99992 12.4047 6.99992 12.25C6.99992 12.0953 6.93846 11.9469 6.82906 11.8375C6.71967 11.7281 6.5713 11.6667 6.41659 11.6667ZM21.5833 11.6667C21.4285 11.6667 21.2802 11.7281 21.1708 11.8375C21.0614 11.9469 20.9999 12.0953 20.9999 12.25C20.9999 12.4047 21.0614 12.5531 21.1708 12.6625C21.2802 12.7719 21.4285 12.8333 21.5833 12.8333C21.738 12.8333 21.8863 12.7719 21.9957 12.6625C22.1051 12.5531 22.1666 12.4047 22.1666 12.25C22.1666 12.0953 22.1051 11.9469 21.9957 11.8375C21.8863 11.7281 21.738 11.6667 21.5833 11.6667ZM13.9999 2.33334C15.2376 2.33334 16.4246 2.82501 17.2998 3.70018C18.1749 4.57535 18.6666 5.76233 18.6666 7.00001C18.6666 8.23769 18.1749 9.42467 17.2998 10.2998C16.4246 11.175 15.2376 11.6667 13.9999 11.6667C12.7622 11.6667 11.5753 11.175 10.7001 10.2998C9.82492 9.42467 9.33325 8.23769 9.33325 7.00001C9.33325 5.76233 9.82492 4.57535 10.7001 3.70018C11.5753 2.82501 12.7622 2.33334 13.9999 2.33334ZM13.9999 4.66668C13.3811 4.66668 12.7876 4.91251 12.35 5.35009C11.9124 5.78768 11.6666 6.38117 11.6666 7.00001C11.6666 7.61885 11.9124 8.21234 12.35 8.64993C12.7876 9.08751 13.3811 9.33334 13.9999 9.33334C14.6188 9.33334 15.2122 9.08751 15.6498 8.64993C16.0874 8.21234 16.3333 7.61885 16.3333 7.00001C16.3333 6.38117 16.0874 5.78768 15.6498 5.35009C15.2122 4.91251 14.6188 4.66668 13.9999 4.66668Z" fill="#1572E2"/>
</svg>
