<svg width="24" height="24" viewBox="0 0 24 24" fill="none" xmlns="http://www.w3.org/2000/svg">
<path d="M12 3.5999C11.5226 3.5999 11.0648 3.78954 10.7272 4.12711C10.3896 4.46468 10.2 4.92251 10.2 5.3999C10.2 5.87729 10.3896 6.33513 10.7272 6.67269C11.0648 7.01026 11.5226 7.1999 12 7.1999C12.4774 7.1999 12.9352 7.01026 13.2728 6.67269C13.6104 6.33513 13.8 5.87729 13.8 5.3999C13.8 4.92251 13.6104 4.46468 13.2728 4.12711C12.9352 3.78954 12.4774 3.5999 12 3.5999ZM8.99999 5.3999C8.99999 4.60425 9.31606 3.84119 9.87867 3.27858C10.4413 2.71597 11.2043 2.3999 12 2.3999C12.7956 2.3999 13.5587 2.71597 14.1213 3.27858C14.6839 3.84119 15 4.60425 15 5.3999C15 6.19555 14.6839 6.95861 14.1213 7.52122C13.5587 8.08383 12.7956 8.3999 12 8.3999C11.2043 8.3999 10.4413 8.08383 9.87867 7.52122C9.31606 6.95861 8.99999 6.19555 8.99999 5.3999ZM18.6 4.7999C18.2817 4.7999 17.9765 4.92633 17.7515 5.15137C17.5264 5.37642 17.4 5.68164 17.4 5.9999C17.4 6.31816 17.5264 6.62339 17.7515 6.84843C17.9765 7.07347 18.2817 7.1999 18.6 7.1999C18.9183 7.1999 19.2235 7.07347 19.4485 6.84843C19.6736 6.62339 19.8 6.31816 19.8 5.9999C19.8 5.68164 19.6736 5.37642 19.4485 5.15137C19.2235 4.92633 18.9183 4.7999 18.6 4.7999ZM16.2 5.9999C16.2 5.36338 16.4529 4.75293 16.9029 4.30285C17.353 3.85276 17.9635 3.5999 18.6 3.5999C19.2365 3.5999 19.847 3.85276 20.2971 4.30285C20.7471 4.75293 21 5.36338 21 5.9999C21 6.63642 20.7471 7.24687 20.2971 7.69696C19.847 8.14705 19.2365 8.3999 18.6 8.3999C17.9635 8.3999 17.353 8.14705 16.9029 7.69696C16.4529 7.24687 16.2 6.63642 16.2 5.9999ZM4.19999 5.9999C4.19999 5.68164 4.32642 5.37642 4.55147 5.15137C4.77651 4.92633 5.08173 4.7999 5.39999 4.7999C5.71825 4.7999 6.02348 4.92633 6.24852 5.15137C6.47357 5.37642 6.59999 5.68164 6.59999 5.9999C6.59999 6.31816 6.47357 6.62339 6.24852 6.84843C6.02348 7.07347 5.71825 7.1999 5.39999 7.1999C5.08173 7.1999 4.77651 7.07347 4.55147 6.84843C4.32642 6.62339 4.19999 6.31816 4.19999 5.9999ZM5.39999 3.5999C4.76347 3.5999 4.15302 3.85276 3.70294 4.30285C3.25285 4.75293 2.99999 5.36338 2.99999 5.9999C2.99999 6.63642 3.25285 7.24687 3.70294 7.69696C4.15302 8.14705 4.76347 8.3999 5.39999 8.3999C6.03651 8.3999 6.64696 8.14705 7.09705 7.69696C7.54714 7.24687 7.79999 6.63642 7.79999 5.9999C7.79999 5.36338 7.54714 4.75293 7.09705 4.30285C6.64696 3.85276 6.03651 3.5999 5.39999 3.5999ZM6.11999 17.9975L5.99999 17.9999C5.36347 17.9999 4.75302 17.747 4.30294 17.297C3.85285 16.8469 3.59999 16.2364 3.59999 15.5999V11.0999C3.59999 11.0203 3.6316 10.944 3.68786 10.8878C3.74412 10.8315 3.82043 10.7999 3.89999 10.7999H6.01679C6.06479 10.3595 6.22079 9.9503 6.45479 9.5999H3.89999C3.07199 9.5999 2.39999 10.2719 2.39999 11.0999V15.5999C2.39994 16.1136 2.50984 16.6215 2.72232 17.0892C2.93479 17.5569 3.24492 17.9738 3.63186 18.3117C4.0188 18.6497 4.47359 18.9009 4.96567 19.0485C5.45776 19.1961 5.97573 19.2367 6.48479 19.1675C6.32358 18.791 6.20134 18.3989 6.11999 17.9975ZM17.5152 19.1675C17.6736 19.1891 17.8352 19.1999 18 19.1999C18.9548 19.1999 19.8704 18.8206 20.5456 18.1455C21.2207 17.4704 21.6 16.5547 21.6 15.5999V11.0999C21.6 10.2719 20.928 9.5999 20.1 9.5999H17.5452C17.7804 9.9503 17.9352 10.3595 17.9832 10.7999H20.1C20.1796 10.7999 20.2559 10.8315 20.3121 10.8878C20.3684 10.944 20.4 11.0203 20.4 11.0999V15.5999C20.4001 15.9252 20.334 16.2472 20.2058 16.5462C20.0776 16.8452 19.89 17.115 19.6543 17.3393C19.4186 17.5635 19.1398 17.7375 18.8348 17.8507C18.5298 17.9638 18.2049 18.0138 17.88 17.9975C17.7986 18.3989 17.6764 18.791 17.5152 19.1675ZM8.69999 9.5999C7.87199 9.5999 7.19999 10.2719 7.19999 11.0999V16.7999C7.19999 18.0729 7.70571 19.2938 8.60588 20.194C9.50606 21.0942 10.727 21.5999 12 21.5999C13.273 21.5999 14.4939 21.0942 15.3941 20.194C16.2943 19.2938 16.8 18.0729 16.8 16.7999V11.0999C16.8 10.2719 16.128 9.5999 15.3 9.5999H8.69999ZM8.39999 11.0999C8.39999 11.0203 8.4316 10.944 8.48786 10.8878C8.54412 10.8315 8.62043 10.7999 8.69999 10.7999H15.3C15.3796 10.7999 15.4559 10.8315 15.5121 10.8878C15.5684 10.944 15.6 11.0203 15.6 11.0999V16.7999C15.6 17.7547 15.2207 18.6704 14.5456 19.3455C13.8704 20.0206 12.9548 20.3999 12 20.3999C11.0452 20.3999 10.1295 20.0206 9.45441 19.3455C8.77928 18.6704 8.39999 17.7547 8.39999 16.7999V11.0999Z" fill="black"/>
</svg>
