<svg width="33" height="32" viewBox="0 0 33 32" fill="none" xmlns="http://www.w3.org/2000/svg">
<g clip-path="url(#clip0_33_2134)">
<path d="M5.05005 9.59999C5.05005 8.32695 5.55576 7.10605 6.45594 6.20588C7.35611 5.3057 8.57701 4.79999 9.85005 4.79999H22.65C23.9231 4.79999 25.144 5.3057 26.0442 6.20588C26.9443 7.10605 27.45 8.32695 27.45 9.59999V12.848C26.9186 12.7864 26.382 12.7843 25.85 12.8416V11.2H6.65005V22.4C6.65005 23.2487 6.98719 24.0626 7.58731 24.6627C8.18742 25.2628 9.00136 25.6 9.85005 25.6H15.4372C15.0858 26.0745 14.8437 26.6209 14.7284 27.2H9.85005C8.57701 27.2 7.35611 26.6943 6.45594 25.7941C5.55576 24.8939 5.05005 23.673 5.05005 22.4V9.59999ZM21.1204 15.3392L18.8164 13.0352C18.6664 12.885 18.4629 12.8005 18.2506 12.8003C18.0383 12.8002 17.8347 12.8844 17.6844 13.0344C17.5342 13.1844 17.4498 13.3879 17.4496 13.6002C17.4495 13.8125 17.5336 14.0162 17.6836 14.1664L20.2084 16.6896C20.4559 16.2128 20.7599 15.7627 21.1204 15.3392ZM9.85005 6.39999C9.00136 6.39999 8.18742 6.73713 7.58731 7.33725C6.98719 7.93736 6.65005 8.7513 6.65005 9.59999H25.85C25.85 8.7513 25.5129 7.93736 24.9128 7.33725C24.3127 6.73713 23.4987 6.39999 22.65 6.39999H9.85005ZM14.8164 14.1664C14.9667 14.0162 15.0511 13.8124 15.0511 13.6C15.0511 13.3875 14.9667 13.1838 14.8164 13.0336C14.6662 12.8834 14.4625 12.799 14.25 12.799C14.0376 12.799 13.8339 12.8834 13.6836 13.0336L9.68365 17.0336C9.60915 17.1079 9.55004 17.1962 9.50971 17.2934C9.46938 17.3906 9.44862 17.4948 9.44862 17.6C9.44862 17.7052 9.46938 17.8094 9.50971 17.9066C9.55004 18.0038 9.60915 18.0921 9.68365 18.1664L13.6836 22.1664C13.8339 22.3166 14.0376 22.401 14.25 22.401C14.4625 22.401 14.6662 22.3166 14.8164 22.1664C14.9667 22.0162 15.0511 21.8124 15.0511 21.6C15.0511 21.3875 14.9667 21.1838 14.8164 21.0336L11.3812 17.6L14.8164 14.1664ZM27.2773 14.4384C27.8629 14.5056 28.0308 15.2064 27.6132 15.6256L26.0533 17.1856C25.8293 17.4096 25.6516 17.6755 25.5304 17.9681C25.4092 18.2608 25.3468 18.5744 25.3468 18.8912C25.3468 19.2079 25.4092 19.5216 25.5304 19.8143C25.6516 20.1069 25.8293 20.3728 26.0533 20.5968C26.2772 20.8208 26.5431 20.9984 26.8358 21.1197C27.1284 21.2409 27.4421 21.3033 27.7589 21.3033C28.0756 21.3033 28.3893 21.2409 28.6819 21.1197C28.9746 20.9984 29.2405 20.8208 29.4645 20.5968L31.0244 19.0368C31.442 18.6192 32.1444 18.7872 32.2116 19.3728C32.3231 20.3237 32.1901 21.2873 31.8254 22.1724C31.4606 23.0576 30.8761 23.8351 30.1272 24.4315C29.3782 25.0278 28.4895 25.4233 27.5451 25.5804C26.6007 25.7376 25.6318 25.6512 24.73 25.3296L20.3684 29.6928C20.1445 29.9168 19.8786 30.0944 19.5859 30.2157C19.2933 30.3369 18.9796 30.3993 18.6628 30.3993C18.3461 30.3993 18.0324 30.3369 17.7398 30.2157C17.4471 30.0944 17.1812 29.9168 16.9572 29.6928C16.7333 29.4688 16.5556 29.2029 16.4344 28.9103C16.3132 28.6176 16.2508 28.3039 16.2508 27.9872C16.2508 27.6704 16.3132 27.3568 16.4344 27.0641C16.5556 26.7715 16.7333 26.5056 16.9572 26.2816L21.3188 21.92C20.9971 21.0181 20.9108 20.0491 21.068 19.1045C21.2252 18.16 21.6208 17.2711 22.2174 16.5221C22.8139 15.7731 23.5916 15.1886 24.477 14.824C25.3625 14.4594 26.3262 14.3266 27.2773 14.4384Z" fill="#1572E2"/>
</g>
<defs>
<clipPath id="clip0_33_2134">
<rect width="32" height="32" fill="white" transform="translate(0.25)"/>
</clipPath>
</defs>
</svg>
