<svg width="24" height="24" viewBox="0 0 24 24" fill="none" xmlns="http://www.w3.org/2000/svg">
<path d="M3.60001 7.2001C3.60001 6.24532 3.97929 5.32964 4.65442 4.65451C5.32955 3.97938 6.24523 3.6001 7.20001 3.6001H16.8C17.7548 3.6001 18.6705 3.97938 19.3456 4.65451C20.0207 5.32964 20.4 6.24532 20.4 7.2001V9.6361C20.0014 9.58992 19.5989 9.58831 19.2 9.6313V8.4001H4.80001V16.8001C4.80001 17.4366 5.05286 18.0471 5.50295 18.4972C5.95304 18.9472 6.56349 19.2001 7.20001 19.2001H11.3904C11.1268 19.556 10.9453 19.9658 10.8588 20.4001H7.20001C6.24523 20.4001 5.32955 20.0208 4.65442 19.3457C3.97929 18.6706 3.60001 17.7549 3.60001 16.8001V7.2001ZM15.6528 11.5045L13.9248 9.7765C13.8123 9.66383 13.6596 9.60048 13.5004 9.60036C13.3412 9.60025 13.1885 9.66339 13.0758 9.7759C12.9631 9.8884 12.8998 10.0411 12.8997 10.2003C12.8996 10.3595 12.9627 10.5122 13.0752 10.6249L14.9688 12.5173C15.1544 12.1597 15.3824 11.8221 15.6528 11.5045ZM7.20001 4.8001C6.56349 4.8001 5.95304 5.05295 5.50295 5.50304C5.05286 5.95313 4.80001 6.56358 4.80001 7.2001H19.2C19.2 6.56358 18.9471 5.95313 18.4971 5.50304C18.047 5.05295 17.4365 4.8001 16.8 4.8001H7.20001ZM10.9248 10.6249C11.0375 10.5122 11.1008 10.3594 11.1008 10.2001C11.1008 10.0408 11.0375 9.88796 10.9248 9.7753C10.8121 9.66263 10.6593 9.59934 10.5 9.59934C10.3407 9.59934 10.1879 9.66263 10.0752 9.7753L7.07521 12.7753C7.01933 12.831 6.975 12.8972 6.94475 12.9701C6.9145 13.043 6.89893 13.1212 6.89893 13.2001C6.89893 13.279 6.9145 13.3572 6.94475 13.4301C6.975 13.503 7.01933 13.5692 7.07521 13.6249L10.0752 16.6249C10.1879 16.7376 10.3407 16.8009 10.5 16.8009C10.6593 16.8009 10.8121 16.7376 10.9248 16.6249C11.0375 16.5122 11.1008 16.3594 11.1008 16.2001C11.1008 16.0408 11.0375 15.888 10.9248 15.7753L8.34841 13.2001L10.9248 10.6249ZM20.2704 10.8289C20.7096 10.8793 20.8356 11.4049 20.5224 11.7193L19.3524 12.8893C19.1844 13.0573 19.0512 13.2567 18.9603 13.4762C18.8693 13.6957 18.8225 13.9309 18.8225 14.1685C18.8225 14.4061 18.8693 14.6413 18.9603 14.8608C19.0512 15.0803 19.1844 15.2797 19.3524 15.4477C19.5204 15.6157 19.7198 15.7489 19.9393 15.8399C20.1588 15.9308 20.394 15.9776 20.6316 15.9776C20.8692 15.9776 21.1044 15.9308 21.3239 15.8399C21.5434 15.7489 21.7428 15.6157 21.9108 15.4477L23.0808 14.2777C23.394 13.9645 23.9208 14.0905 23.9712 14.5297C24.0548 15.2429 23.9551 15.9656 23.6815 16.6294C23.408 17.2933 22.9696 17.8765 22.4078 18.3237C21.8461 18.771 21.1796 19.0675 20.4713 19.1854C19.763 19.3033 19.0363 19.2385 18.36 18.9973L15.0888 22.2697C14.9208 22.4377 14.7214 22.5709 14.5019 22.6619C14.2824 22.7528 14.0472 22.7996 13.8096 22.7996C13.572 22.7996 13.3368 22.7528 13.1173 22.6619C12.8978 22.5709 12.6984 22.4377 12.5304 22.2697C12.3624 22.1017 12.2292 21.9023 12.1383 21.6828C12.0473 21.4633 12.0005 21.2281 12.0005 20.9905C12.0005 20.7529 12.0473 20.5177 12.1383 20.2982C12.2292 20.0787 12.3624 19.8793 12.5304 19.7113L15.8016 16.4401C15.5603 15.7637 15.4956 15.0369 15.6135 14.3285C15.7314 13.6201 16.0281 12.9535 16.4755 12.3917C16.9229 11.8299 17.5062 11.3916 18.1703 11.1181C18.8343 10.8446 19.5572 10.7451 20.2704 10.8289Z" fill="#1572E2"/>
</svg>
