<svg width="25" height="25" viewBox="0 0 25 25" fill="none" xmlns="http://www.w3.org/2000/svg">
<path d="M10.5573 21.875L10.1802 18.8625C9.84757 18.7618 9.4882 18.6042 9.10209 18.3896C8.71528 18.1743 8.38646 17.9437 8.11563 17.6979L5.33646 18.8802L3.39375 15.4948L5.79584 13.6833C5.76459 13.4958 5.73924 13.3021 5.71979 13.1021C5.69896 12.9021 5.68854 12.708 5.68854 12.5198C5.68854 12.3448 5.69896 12.1608 5.71979 11.9677C5.73924 11.7747 5.76459 11.5573 5.79584 11.3156L3.39375 9.50625L5.33646 6.16042L8.09479 7.32292C8.40591 7.06389 8.74271 6.83021 9.10521 6.62187C9.46632 6.41354 9.81806 6.25243 10.1604 6.13854L10.5563 3.125H14.4438L14.8198 6.15833C15.2191 6.29861 15.5719 6.45937 15.8781 6.64062C16.1844 6.82187 16.5 7.04896 16.825 7.32187L19.6635 6.16042L21.6063 9.50521L19.125 11.376C19.1819 11.5913 19.2139 11.7889 19.2208 11.9687C19.2278 12.1486 19.2313 12.3257 19.2313 12.5C19.2313 12.6618 19.2243 12.8323 19.2104 13.0115C19.1972 13.1913 19.1667 13.4087 19.1188 13.6635L21.5604 15.4948L19.6177 18.8802L16.825 17.6781C16.5007 17.951 16.1743 18.1847 15.8458 18.3792C15.5174 18.5736 15.1753 18.7281 14.8198 18.8427L14.4438 21.875H10.5573ZM11.4583 20.8333H13.4958L13.8802 18.0125C14.4052 17.8736 14.8774 17.683 15.2969 17.4406C15.7177 17.1983 16.1455 16.8663 16.5802 16.4448L19.1792 17.5521L20.2146 15.7812L17.9344 14.0687C18.0212 13.7722 18.0788 13.4993 18.1073 13.25C18.1351 13.0014 18.149 12.7514 18.149 12.5C18.149 12.2361 18.1351 11.9861 18.1073 11.75C18.0795 11.5139 18.0219 11.2545 17.9344 10.9719L20.2542 9.21875L19.2188 7.44792L16.5604 8.5625C16.2451 8.21597 15.8309 7.89132 15.3177 7.58854C14.8038 7.28646 14.3177 7.08611 13.8594 6.9875L13.5417 4.16667H11.4646L11.1396 6.96771C10.6146 7.07951 10.1319 7.26007 9.69167 7.50937C9.25209 7.75799 8.81459 8.1 8.37917 8.53542L5.78125 7.44792L4.74584 9.21875L7.00521 10.9062C6.91841 11.1396 6.85764 11.3931 6.82292 11.6667C6.7882 11.9403 6.77084 12.225 6.77084 12.5208C6.77084 12.7847 6.7882 13.0469 6.82292 13.3073C6.85764 13.5677 6.91181 13.8212 6.98542 14.0677L4.74584 15.7812L5.78125 17.5521L8.35938 16.4583C8.76841 16.8708 9.19271 17.2017 9.63229 17.451C10.0726 17.7003 10.5684 17.8944 11.1198 18.0333L11.4583 20.8333ZM12.4719 15.1042C13.1983 15.1042 13.8139 14.8517 14.3188 14.3469C14.8236 13.842 15.076 13.2264 15.076 12.5C15.076 11.7736 14.8236 11.158 14.3188 10.6531C13.8139 10.1483 13.1983 9.89583 12.4719 9.89583C11.7413 9.89583 11.1247 10.1483 10.6219 10.6531C10.1191 11.158 9.86771 11.7736 9.86771 12.5C9.86771 13.2264 10.1191 13.842 10.6219 14.3469C11.1247 14.8517 11.7413 15.1042 12.4719 15.1042Z" fill="#1572E2"/>
</svg>
