<svg width="24" height="24" viewBox="0 0 24 24" fill="none" xmlns="http://www.w3.org/2000/svg">
<path d="M3 10H2.25C2.25 10.414 2.586 10.75 3 10.75V10ZM3 14V13.25C2.80109 13.25 2.61032 13.329 2.46967 13.4697C2.32902 13.6103 2.25 13.8011 2.25 14H3ZM21 10V10.75C21.1989 10.75 21.3897 10.671 21.5303 10.5303C21.671 10.3897 21.75 10.1989 21.75 10H21ZM21 14H21.75C21.75 13.8011 21.671 13.6103 21.5303 13.4697C21.3897 13.329 21.1989 13.25 21 13.25V14ZM5 5.75H10V4.25H5V5.75ZM10 5.75H19V4.25H10V5.75ZM19 18.25H10V19.75H19V18.25ZM10 18.25H5V19.75H10V18.25ZM9.25 5V19H10.75V5H9.25ZM3.884 11.116C4.00011 11.2321 4.09221 11.3699 4.15505 11.5216C4.21789 11.6732 4.25023 11.8358 4.25023 12C4.25023 12.1642 4.21789 12.3268 4.15505 12.4784C4.09221 12.6301 4.00011 12.7679 3.884 12.884L4.944 13.944C5.4597 13.4283 5.74941 12.7288 5.74941 11.9995C5.74941 11.2702 5.4597 10.5707 4.944 10.055L3.884 11.116ZM20.116 12.884C19.9999 12.7679 19.9078 12.6301 19.8449 12.4784C19.7821 12.3268 19.7498 12.1642 19.7498 12C19.7498 11.8358 19.7821 11.6732 19.8449 11.5216C19.9078 11.3699 19.9999 11.2321 20.116 11.116L19.056 10.056C18.5403 10.5717 18.2506 11.2712 18.2506 12.0005C18.2506 12.7298 18.5403 13.4293 19.056 13.945L20.116 12.884ZM3 10.75C3.321 10.75 3.64 10.872 3.884 11.116L4.944 10.055C4.68908 9.79916 4.38609 9.59725 4.05247 9.45892C3.71884 9.3206 3.36116 9.2496 3 9.25V10.75ZM3.75 10V7H2.25V10H3.75ZM3.75 17V14H2.25V17H3.75ZM3.884 12.884C3.76823 13.0005 3.63047 13.0929 3.47872 13.1557C3.32697 13.2185 3.16424 13.2506 3 13.25V14.75C3.703 14.75 4.408 14.481 4.945 13.944L3.884 12.884ZM20.116 11.116C20.36 10.872 20.679 10.75 21 10.75V9.25C20.297 9.25 19.593 9.519 19.056 10.056L20.116 11.116ZM20.25 7V10H21.75V7H20.25ZM20.25 14V17H21.75V14H20.25ZM21 13.25C20.679 13.25 20.36 13.128 20.116 12.884L19.056 13.945C19.3109 14.2008 19.6139 14.4028 19.9475 14.5411C20.2812 14.6794 20.6388 14.7504 21 14.75V13.25ZM5 18.25C4.31 18.25 3.75 17.69 3.75 17H2.25C2.25 17.7293 2.53973 18.4288 3.05546 18.9445C3.57118 19.4603 4.27065 19.75 5 19.75V18.25ZM19 19.75C19.7293 19.75 20.4288 19.4603 20.9445 18.9445C21.4603 18.4288 21.75 17.7293 21.75 17H20.25C20.25 17.69 19.69 18.25 19 18.25V19.75ZM19 5.75C19.69 5.75 20.25 6.31 20.25 7H21.75C21.75 6.27065 21.4603 5.57118 20.9445 5.05546C20.4288 4.53973 19.7293 4.25 19 4.25V5.75ZM5 4.25C4.27065 4.25 3.57118 4.53973 3.05546 5.05546C2.53973 5.57118 2.25 6.27065 2.25 7H3.75C3.75 6.31 4.31 5.75 5 5.75V4.25Z" fill="#1572E2"/>
</svg>
