<svg width="33" height="32" viewBox="0 0 33 32" fill="none" xmlns="http://www.w3.org/2000/svg">
<path d="M16.75 4.80001C16.1134 4.80001 15.503 5.05287 15.0529 5.50296C14.6028 5.95304 14.35 6.56349 14.35 7.20001C14.35 7.83653 14.6028 8.44698 15.0529 8.89707C15.503 9.34716 16.1134 9.60001 16.75 9.60001C17.3865 9.60001 17.9969 9.34716 18.447 8.89707C18.8971 8.44698 19.15 7.83653 19.15 7.20001C19.15 6.56349 18.8971 5.95304 18.447 5.50296C17.9969 5.05287 17.3865 4.80001 16.75 4.80001ZM12.75 7.20001C12.75 6.13915 13.1714 5.12173 13.9215 4.37159C14.6717 3.62144 15.6891 3.20001 16.75 3.20001C17.8108 3.20001 18.8282 3.62144 19.5784 4.37159C20.3285 5.12173 20.75 6.13915 20.75 7.20001C20.75 8.26088 20.3285 9.27829 19.5784 10.0284C18.8282 10.7786 17.8108 11.2 16.75 11.2C15.6891 11.2 14.6717 10.7786 13.9215 10.0284C13.1714 9.27829 12.75 8.26088 12.75 7.20001ZM25.55 6.40001C25.1256 6.40001 24.7186 6.56858 24.4186 6.86864C24.1185 7.1687 23.95 7.57567 23.95 8.00001C23.95 8.42436 24.1185 8.83132 24.4186 9.13138C24.7186 9.43144 25.1256 9.60001 25.55 9.60001C25.9743 9.60001 26.3813 9.43144 26.6813 9.13138C26.9814 8.83132 27.15 8.42436 27.15 8.00001C27.15 7.57567 26.9814 7.1687 26.6813 6.86864C26.3813 6.56858 25.9743 6.40001 25.55 6.40001ZM22.35 8.00001C22.35 7.15132 22.6871 6.33739 23.2872 5.73727C23.8873 5.13715 24.7013 4.80001 25.55 4.80001C26.3986 4.80001 27.2126 5.13715 27.8127 5.73727C28.4128 6.33739 28.75 7.15132 28.75 8.00001C28.75 8.84871 28.4128 9.66264 27.8127 10.2628C27.2126 10.8629 26.3986 11.2 25.55 11.2C24.7013 11.2 23.8873 10.8629 23.2872 10.2628C22.6871 9.66264 22.35 8.84871 22.35 8.00001ZM6.34995 8.00001C6.34995 7.57567 6.51852 7.1687 6.81858 6.86864C7.11864 6.56858 7.5256 6.40001 7.94995 6.40001C8.3743 6.40001 8.78126 6.56858 9.08132 6.86864C9.38138 7.1687 9.54995 7.57567 9.54995 8.00001C9.54995 8.42436 9.38138 8.83132 9.08132 9.13138C8.78126 9.43144 8.3743 9.60001 7.94995 9.60001C7.5256 9.60001 7.11864 9.43144 6.81858 9.13138C6.51852 8.83132 6.34995 8.42436 6.34995 8.00001ZM7.94995 4.80001C7.10126 4.80001 6.28733 5.13715 5.68721 5.73727C5.08709 6.33739 4.74995 7.15132 4.74995 8.00001C4.74995 8.84871 5.08709 9.66264 5.68721 10.2628C6.28733 10.8629 7.10126 11.2 7.94995 11.2C8.79864 11.2 9.61258 10.8629 10.2127 10.2628C10.8128 9.66264 11.15 8.84871 11.15 8.00001C11.15 7.15132 10.8128 6.33739 10.2127 5.73727C9.61258 5.13715 8.79864 4.80001 7.94995 4.80001ZM8.90995 23.9968L8.74995 24C7.90126 24 7.08733 23.6629 6.48721 23.0628C5.88709 22.4626 5.54995 21.6487 5.54995 20.8V14.8C5.54995 14.6939 5.59209 14.5922 5.66711 14.5172C5.74212 14.4422 5.84386 14.4 5.94995 14.4H8.77235C8.83635 13.8128 9.04435 13.2672 9.35635 12.8H5.94995C4.84595 12.8 3.94995 13.696 3.94995 14.8V20.8C3.94988 21.485 4.09641 22.1621 4.37971 22.7857C4.66301 23.4094 5.07652 23.9652 5.59244 24.4158C6.10836 24.8664 6.71475 25.2013 7.37086 25.3982C8.02697 25.595 8.7176 25.6491 9.39635 25.5568C9.1814 25.0548 9.01841 24.5321 8.90995 23.9968ZM24.1036 25.5568C24.3148 25.5856 24.5302 25.6 24.75 25.6C26.023 25.6 27.2439 25.0943 28.1441 24.1941C29.0442 23.294 29.55 22.0731 29.55 20.8V14.8C29.55 13.696 28.654 12.8 27.55 12.8H24.1436C24.4572 13.2672 24.6636 13.8128 24.7276 14.4H27.55C27.656 14.4 27.7578 14.4422 27.8328 14.5172C27.9078 14.5922 27.95 14.6939 27.95 14.8V20.8C27.9501 21.2338 27.862 21.663 27.6911 22.0617C27.5201 22.4604 27.2699 22.8202 26.9557 23.1192C26.6414 23.4182 26.2697 23.6501 25.863 23.801C25.4563 23.9519 25.0232 24.0185 24.59 23.9968C24.4815 24.5321 24.3185 25.0548 24.1036 25.5568ZM12.35 12.8C11.246 12.8 10.35 13.696 10.35 14.8V22.4C10.35 24.0974 11.0242 25.7253 12.2245 26.9255C13.4247 28.1257 15.0526 28.8 16.75 28.8C18.4473 28.8 20.0752 28.1257 21.2754 26.9255C22.4757 25.7253 23.15 24.0974 23.15 22.4V14.8C23.15 13.696 22.254 12.8 21.15 12.8H12.35ZM11.95 14.8C11.95 14.6939 11.9921 14.5922 12.0671 14.5172C12.1421 14.4422 12.2439 14.4 12.35 14.4H21.15C21.256 14.4 21.3578 14.4422 21.4328 14.5172C21.5078 14.5922 21.55 14.6939 21.55 14.8V22.4C21.55 23.6731 21.0442 24.894 20.1441 25.7941C19.2439 26.6943 18.023 27.2 16.75 27.2C15.4769 27.2 14.256 26.6943 13.3558 25.7941C12.4557 24.894 11.95 23.6731 11.95 22.4V14.8Z" fill="#1572E2"/>
</svg>
