<svg width="32" height="32" viewBox="0 0 32 32" fill="none" xmlns="http://www.w3.org/2000/svg">
<path d="M8.75 23.5H11.25C11.3875 23.5 11.5 23.3875 11.5 23.25V8.75C11.5 8.6125 11.3875 8.5 11.25 8.5H8.75C8.6125 8.5 8.5 8.6125 8.5 8.75V23.25C8.5 23.3875 8.6125 23.5 8.75 23.5ZM14.75 14.75H17.25C17.3875 14.75 17.5 14.6375 17.5 14.5V8.75C17.5 8.6125 17.3875 8.5 17.25 8.5H14.75C14.6125 8.5 14.5 8.6125 14.5 8.75V14.5C14.5 14.6375 14.6125 14.75 14.75 14.75ZM20.75 17H23.25C23.3875 17 23.5 16.8875 23.5 16.75V8.75C23.5 8.6125 23.3875 8.5 23.25 8.5H20.75C20.6125 8.5 20.5 8.6125 20.5 8.75V16.75C20.5 16.8875 20.6125 17 20.75 17ZM27.5 3.5H4.5C3.94687 3.5 3.5 3.94687 3.5 4.5V27.5C3.5 28.0531 3.94687 28.5 4.5 28.5H27.5C28.0531 28.5 28.5 28.0531 28.5 27.5V4.5C28.5 3.94687 28.0531 3.5 27.5 3.5ZM26.25 26.25H5.75V5.75H26.25V26.25Z" fill="#1572E2"/>
</svg>
