<svg width="33" height="32" viewBox="0 0 33 32" fill="none" xmlns="http://www.w3.org/2000/svg">
<path d="M4.95068 22.6667C6.12113 24.694 7.80466 26.3773 9.83203 27.5476C11.8594 28.7179 14.1591 29.3338 16.5 29.3334C18.8409 29.3338 21.1406 28.7179 23.168 27.5476C25.1954 26.3773 26.8789 24.694 28.0494 22.6667M4.95068 9.33335C6.12113 7.30609 7.80466 5.6227 9.83203 4.45243C11.8594 3.28217 14.1591 2.66628 16.5 2.66669C18.8409 2.66628 21.1406 3.28217 23.168 4.45243C25.1954 5.6227 26.8789 7.30609 28.0494 9.33335" stroke="#1572E2" stroke-width="1.5" stroke-linecap="round" stroke-linejoin="round"/>
<path d="M17.8334 29.2667C17.8334 29.2667 19.7107 26.796 20.8934 22.6667M17.8334 2.73334C17.8334 2.73334 19.7107 5.20267 20.8934 9.33334M15.1667 29.2667C15.1667 29.2667 13.2894 26.7973 12.1067 22.6667M15.1667 2.73334C15.1667 2.73334 13.2894 5.20267 12.1067 9.33334M12.5 13.3333L14.5 20L16.5 13.3333L18.5 20L20.5 13.3333M1.83337 13.3333L3.83337 20L5.83337 13.3333L7.83337 20L9.83337 13.3333M23.1667 13.3333L25.1667 20L27.1667 13.3333L29.1667 20L31.1667 13.3333" stroke="#1572E2" stroke-width="1.5" stroke-linecap="round" stroke-linejoin="round"/>
</svg>
