<svg width="24" height="24" viewBox="0 0 24 24" fill="none" xmlns="http://www.w3.org/2000/svg">
<path d="M12 0.333344C5.55654 0.333344 0.333374 5.55651 0.333374 12C0.333374 18.4435 5.55654 23.6667 12 23.6667C18.4435 23.6667 23.6667 18.4435 23.6667 12C23.6667 5.55651 18.4435 0.333344 12 0.333344ZM20.071 7.33334H16.3202C16.1459 6.0206 15.9261 4.71431 15.661 3.41684C17.5135 4.21491 19.0597 5.58815 20.071 7.33334ZM13.183 2.75068C13.2624 3.16134 13.6345 5.12834 13.9355 7.33334H10.0645C10.3655 5.12834 10.7377 3.16134 10.817 2.75068C11.2055 2.70051 11.5987 2.66668 12 2.66668C12.4014 2.66668 12.7945 2.70051 13.183 2.75068ZM14.3334 12C14.3334 12.6977 14.2832 13.5003 14.2062 14.3333H9.79387C9.71688 13.5003 9.66671 12.6977 9.66671 12C9.66671 11.3023 9.71688 10.4997 9.79387 9.66668H14.2062C14.2832 10.4997 14.3334 11.3023 14.3334 12ZM8.33904 3.41684C8.07402 4.71431 7.85417 6.0206 7.67987 7.33334H3.92904C4.94033 5.58815 6.48661 4.21491 8.33904 3.41684ZM2.97354 9.66668H7.43137C7.37187 10.446 7.33337 11.2347 7.33337 12C7.33337 12.7653 7.37187 13.554 7.43254 14.3333H2.97354C2.77987 13.5855 2.66671 12.8073 2.66671 12C2.66671 11.1927 2.78104 10.4145 2.97354 9.66668ZM3.92904 16.6667H7.67987C7.89921 18.328 8.16988 19.7583 8.33904 20.5832C6.48661 19.7851 4.94033 18.4119 3.92904 16.6667ZM10.817 21.2493C10.5268 19.7285 10.2758 18.2005 10.0645 16.6667H13.9355C13.7237 18.2004 13.4728 19.7284 13.183 21.2493C12.7945 21.2995 12.4014 21.3333 12 21.3333C11.5987 21.3333 11.2055 21.2995 10.817 21.2493ZM15.661 20.5832C15.8302 19.7583 16.1009 18.328 16.3202 16.6667H20.071C19.0597 18.4119 17.5135 19.7851 15.661 20.5832ZM21.0265 14.3333H16.5687C16.6282 13.554 16.6667 12.7653 16.6667 12C16.6667 11.2347 16.6282 10.446 16.5675 9.66668H21.0254C21.219 10.4145 21.3334 11.1927 21.3334 12C21.3334 12.8073 21.2202 13.5855 21.0265 14.3333Z" fill="#1572E2"/>
</svg>
